<svg width="258" height="63" viewBox="0 0 258 63" fill="none" xmlns="http://www.w3.org/2000/svg">
<circle cx="31.5" cy="31.5" r="31.5" fill="#FF64AE"/>
<rect x="39" y="26" width="40" height="11" rx="5.5" fill="#091156"/>
<circle cx="28" cy="26" r="3" fill="white"/>
<circle cx="18.5" cy="17.5" r="6.5" fill="white"/>
<path d="M108.688 31.36C109.664 31.568 110.448 32.056 111.04 32.824C111.632 33.576 111.928 34.44 111.928 35.416C111.928 36.824 111.432 37.944 110.44 38.776C109.464 39.592 108.096 40 106.336 40H98.488V23.152H106.072C107.784 23.152 109.12 23.544 110.08 24.328C111.056 25.112 111.544 26.176 111.544 27.52C111.544 28.512 111.28 29.336 110.752 29.992C110.24 30.648 109.552 31.104 108.688 31.36ZM102.592 29.968H105.28C105.952 29.968 106.464 29.824 106.816 29.536C107.184 29.232 107.368 28.792 107.368 28.216C107.368 27.64 107.184 27.2 106.816 26.896C106.464 26.592 105.952 26.44 105.28 26.44H102.592V29.968ZM105.616 36.688C106.304 36.688 106.832 36.536 107.2 36.232C107.584 35.912 107.776 35.456 107.776 34.864C107.776 34.272 107.576 33.808 107.176 33.472C106.792 33.136 106.256 32.968 105.568 32.968H102.592V36.688H105.616ZM129.332 33.088C129.332 33.472 129.308 33.872 129.26 34.288H119.972C120.036 35.12 120.3 35.76 120.764 36.208C121.244 36.64 121.828 36.856 122.516 36.856C123.54 36.856 124.252 36.424 124.652 35.56H129.02C128.796 36.44 128.388 37.232 127.796 37.936C127.22 38.64 126.492 39.192 125.612 39.592C124.732 39.992 123.748 40.192 122.66 40.192C121.348 40.192 120.18 39.912 119.156 39.352C118.132 38.792 117.332 37.992 116.756 36.952C116.18 35.912 115.892 34.696 115.892 33.304C115.892 31.912 116.172 30.696 116.732 29.656C117.308 28.616 118.108 27.816 119.132 27.256C120.156 26.696 121.332 26.416 122.66 26.416C123.956 26.416 125.108 26.688 126.116 27.232C127.124 27.776 127.908 28.552 128.468 29.56C129.044 30.568 129.332 31.744 129.332 33.088ZM125.132 32.008C125.132 31.304 124.892 30.744 124.412 30.328C123.932 29.912 123.332 29.704 122.612 29.704C121.924 29.704 121.34 29.904 120.86 30.304C120.396 30.704 120.108 31.272 119.996 32.008H125.132ZM133.081 33.28C133.081 31.904 133.337 30.696 133.849 29.656C134.377 28.616 135.089 27.816 135.985 27.256C136.881 26.696 137.881 26.416 138.985 26.416C139.929 26.416 140.753 26.608 141.457 26.992C142.177 27.376 142.729 27.88 143.113 28.504V26.608H147.217V40H143.113V38.104C142.713 38.728 142.153 39.232 141.433 39.616C140.729 40 139.905 40.192 138.961 40.192C137.873 40.192 136.881 39.912 135.985 39.352C135.089 38.776 134.377 37.968 133.849 36.928C133.337 35.872 133.081 34.656 133.081 33.28ZM143.113 33.304C143.113 32.28 142.825 31.472 142.249 30.88C141.689 30.288 141.001 29.992 140.185 29.992C139.369 29.992 138.673 30.288 138.097 30.88C137.537 31.456 137.257 32.256 137.257 33.28C137.257 34.304 137.537 35.12 138.097 35.728C138.673 36.32 139.369 36.616 140.185 36.616C141.001 36.616 141.689 36.32 142.249 35.728C142.825 35.136 143.113 34.328 143.113 33.304ZM165.81 26.608V40H161.706V38.176C161.29 38.768 160.722 39.248 160.002 39.616C159.298 39.968 158.514 40.144 157.65 40.144C156.626 40.144 155.722 39.92 154.938 39.472C154.154 39.008 153.546 38.344 153.114 37.48C152.682 36.616 152.466 35.6 152.466 34.432V26.608H156.546V33.88C156.546 34.776 156.778 35.472 157.242 35.968C157.706 36.464 158.33 36.712 159.114 36.712C159.914 36.712 160.546 36.464 161.01 35.968C161.474 35.472 161.706 34.776 161.706 33.88V26.608H165.81ZM178.622 36.52V40H176.534C175.046 40 173.886 39.64 173.054 38.92C172.222 38.184 171.806 36.992 171.806 35.344V30.016H170.174V26.608H171.806V23.344H175.91V26.608H178.598V30.016H175.91V35.392C175.91 35.792 176.006 36.08 176.198 36.256C176.39 36.432 176.71 36.52 177.158 36.52H178.622ZM185.372 25.216C184.652 25.216 184.06 25.008 183.596 24.592C183.148 24.16 182.924 23.632 182.924 23.008C182.924 22.368 183.148 21.84 183.596 21.424C184.06 20.992 184.652 20.776 185.372 20.776C186.076 20.776 186.652 20.992 187.1 21.424C187.564 21.84 187.796 22.368 187.796 23.008C187.796 23.632 187.564 24.16 187.1 24.592C186.652 25.008 186.076 25.216 185.372 25.216ZM187.412 26.608V40H183.308V26.608H187.412ZM191.97 33.304C191.97 31.912 192.25 30.696 192.81 29.656C193.386 28.616 194.178 27.816 195.186 27.256C196.21 26.696 197.378 26.416 198.69 26.416C200.37 26.416 201.77 26.856 202.89 27.736C204.026 28.616 204.77 29.856 205.122 31.456H200.754C200.386 30.432 199.674 29.92 198.618 29.92C197.866 29.92 197.266 30.216 196.818 30.808C196.37 31.384 196.146 32.216 196.146 33.304C196.146 34.392 196.37 35.232 196.818 35.824C197.266 36.4 197.866 36.688 198.618 36.688C199.674 36.688 200.386 36.176 200.754 35.152H205.122C204.77 36.72 204.026 37.952 202.89 38.848C201.754 39.744 200.354 40.192 198.69 40.192C197.378 40.192 196.21 39.912 195.186 39.352C194.178 38.792 193.386 37.992 192.81 36.952C192.25 35.912 191.97 34.696 191.97 33.304ZM222.342 33.088C222.342 33.472 222.318 33.872 222.27 34.288H212.982C213.046 35.12 213.31 35.76 213.774 36.208C214.254 36.64 214.838 36.856 215.526 36.856C216.55 36.856 217.262 36.424 217.662 35.56H222.03C221.806 36.44 221.398 37.232 220.806 37.936C220.23 38.64 219.502 39.192 218.622 39.592C217.742 39.992 216.758 40.192 215.67 40.192C214.358 40.192 213.19 39.912 212.166 39.352C211.142 38.792 210.342 37.992 209.766 36.952C209.19 35.912 208.902 34.696 208.902 33.304C208.902 31.912 209.182 30.696 209.742 29.656C210.318 28.616 211.118 27.816 212.142 27.256C213.166 26.696 214.342 26.416 215.67 26.416C216.966 26.416 218.118 26.688 219.126 27.232C220.134 27.776 220.918 28.552 221.478 29.56C222.054 30.568 222.342 31.744 222.342 33.088ZM218.142 32.008C218.142 31.304 217.902 30.744 217.422 30.328C216.942 29.912 216.342 29.704 215.622 29.704C214.934 29.704 214.35 29.904 213.87 30.304C213.406 30.704 213.118 31.272 213.006 32.008H218.142Z" fill="#091156"/>
</svg>
